<svg xmlns="http://www.w3.org/2000/svg" xmlns:xlink="http://www.w3.org/1999/xlink" width="41.458" height="45.028" viewBox="0 0 41.458 45.028">
    <defs>
        <linearGradient id="linear-gradient" x1="0.5" y1="1" x2="0.5" gradientUnits="objectBoundingBox">
            <stop offset="0" stop-color="#de2234"/>
            <stop offset="1" stop-color="#bb0130"/>
        </linearGradient>
        <filter id="Path_3603" x="0" y="0" width="41.458" height="45.028" filterUnits="userSpaceOnUse">
            <feOffset dy="3" input="SourceAlpha"/>
            <feGaussianBlur stdDeviation="3" result="blur"/>
            <feFlood flood-opacity="0.741"/>
            <feComposite operator="in" in2="blur"/>
            <feComposite in="SourceGraphic"/>
        </filter>
    </defs>
    <g transform="matrix(1, 0, 0, 1, 0, 0)" filter="url(#Path_3603)">
        <g id="Path_3603-2" data-name="Path 3603" transform="translate(32.46 6) rotate(90)" fill="url(#linear-gradient)">
            <path d="M 19.84760284423828 23.38280296325684 L 7.180732250213623 23.38280296325684 C 6.904732227325439 23.38280296325684 6.647062301635742 23.2346134185791 6.508272171020508 22.99605369567871 L 0.180542066693306 12.1201639175415 C 0.0401320643723011 11.87882423400879 0.0401320643723011 11.57898330688477 0.180542066693306 11.33765411376953 L 6.508262157440186 0.4617537558078766 C 6.647062301635742 0.2231937646865845 6.904732227325439 0.07500377297401428 7.180732250213623 0.07500377297401428 L 19.84760284423828 0.07500377297401428 C 20.12360191345215 0.07500377297401428 20.38127136230469 0.2231937646865845 20.52006149291992 0.4617537558078766 L 26.84779167175293 11.33765411376953 C 26.98820114135742 11.57898330688477 26.98820114135742 11.87882423400879 26.84779167175293 12.12015342712402 L 20.52006149291992 22.99605369567871 C 20.38127136230469 23.2346134185791 20.12360191345215 23.38280296325684 19.84760284423828 23.38280296325684 Z" stroke="none"/>
            <path d="M 19.84760284423828 23.30780410766602 C 20.09699249267578 23.30780410766602 20.32983207702637 23.17389297485352 20.45524215698242 22.95834350585938 L 26.78297233581543 12.082444190979 C 26.90983200073242 11.8643741607666 26.90983200073242 11.59343338012695 26.78297233581543 11.37536334991455 L 20.45524215698242 0.4994637668132782 C 20.32983207702637 0.2839137613773346 20.09699249267578 0.1500037759542465 19.84760284423828 0.1500037759542465 L 7.180732250213623 0.1500037759542465 C 6.931342124938965 0.1500037759542465 6.698502063751221 0.2839137613773346 6.573081970214844 0.4994637668132782 L 0.2453620582818985 11.37536334991455 C 0.118492066860199 11.59343338012695 0.118492066860199 11.8643741607666 0.2453620582818985 12.08245372772217 L 6.573091983795166 22.95834350585938 C 6.698502063751221 23.17389297485352 6.931342124938965 23.30780410766602 7.180732250213623 23.30780410766602 L 19.84760284423828 23.30780410766602 M 19.84760284423828 23.45780372619629 L 7.180732250213623 23.45780372619629 C 6.877002239227295 23.45780372619629 6.596181869506836 23.29630470275879 6.443441867828369 23.03377342224121 L 0.1157120615243912 12.157883644104 C -0.03856793791055679 11.89270401000977 -0.03856793791055679 11.56510353088379 0.1157120615243912 11.29993343353271 L 6.443431854248047 0.4240337610244751 C 6.596181869506836 0.1615037769079208 6.876992225646973 3.77044671040494e-06 7.180732250213623 3.77044671040494e-06 L 19.84760284423828 3.77044671040494e-06 C 20.15133285522461 3.77044671040494e-06 20.43215179443359 0.1615037769079208 20.58489227294922 0.4240337610244751 L 26.91262245178223 11.29993343353271 C 27.06689262390137 11.56510353088379 27.06689262390137 11.89270401000977 26.91262245178223 12.15787410736084 L 20.58489227294922 23.03377342224121 C 20.43215179443359 23.29630470275879 20.15133285522461 23.45780372619629 19.84760284423828 23.45780372619629 Z" stroke="none" fill="#c5d1d8"/>
        </g>
    </g>
</svg>
